<mxfile host="app.diagrams.net" modified="2023-12-23T14:59:50.216Z" agent="Mozilla/5.0 (Windows NT 10.0; Win64; x64) AppleWebKit/537.36 (KHTML, like Gecko) Chrome/118.0.0.0 YaBrowser/23.11.0.0 Safari/537.36" version="22.1.11" etag="-EgMWzqt4_VVoMJzdDHT" type="github">
  <diagram name="Страница — 1" id="hziAFoRf1nExCZqx7qH7">
    <mxGraphModel>
      <root>
        <mxCell id="0" />
        <mxCell id="1" parent="0" />
      </root>
    </mxGraphModel>
  </diagram>
</mxfile>
